<?xml version="1.0" standalone="no"?>
<!DOCTYPE svg PUBLIC "-//W3C//DTD SVG 20010904//EN"
 "http://www.w3.org/TR/2001/REC-SVG-20010904/DTD/svg10.dtd">
<svg version="1.0" xmlns="http://www.w3.org/2000/svg"
 width="260.000000pt" height="260.000000pt" viewBox="0 0 260.000000 260.000000"
 preserveAspectRatio="xMidYMid meet">
<metadata>
Created by potrace 1.11, written by Peter Selinger 2001-2013
</metadata>
<g transform="translate(0.000000,260.000000) scale(0.100000,-0.100000)"
fill="#000000" stroke="none">
<path d="M1070 1764 c0 -469 2 -501 20 -541 l19 -42 68 -4 c65 -3 64 -3 -19
-5 l-88 -2 0 -315 c0 -290 2 -318 19 -357 11 -24 22 -54 25 -68 3 -14 15 -40
26 -57 l20 -33 135 0 135 0 0 128 c-1 91 -5 134 -15 152 -10 17 -14 59 -15
138 l0 112 30 0 30 0 0 80 0 80 200 0 200 0 0 55 0 54 148 3 147 3 3 153 3
152 134 0 135 0 0 50 c0 31 -8 66 -20 90 l-20 40 -110 0 -110 0 0 39 c0 76
-31 216 -67 300 -46 106 -112 178 -206 222 -111 52 -173 59 -514 66 l-313 6 0
-499z m675 79 c43 -21 49 -46 43 -188 -3 -74 -9 -111 -22 -129 -16 -25 -19
-26 -126 -26 l-110 0 0 -35 c0 -33 -2 -35 -35 -35 l-35 0 0 215 0 215 125 0
c96 0 132 -4 160 -17z"/>
<path d="M640 1725 l0 -525 -135 0 c-81 0 -135 -4 -135 -10 0 -5 10 -30 22
-55 l22 -45 113 0 113 0 0 -170 0 -170 -135 0 -135 0 0 25 c0 14 -9 44 -20 65
l-20 40 -165 0 -165 0 0 -157 c0 -140 2 -162 20 -191 18 -29 24 -32 72 -32
l53 0 24 -55 23 -55 83 0 c77 0 84 -2 99 -25 l17 -25 217 2 217 3 -2 23 c-3
22 -1 22 102 22 l105 0 0 263 c0 239 -2 266 -20 306 -18 40 -20 66 -20 322 0
272 0 279 20 279 20 0 20 7 20 299 0 279 -1 301 -20 345 l-21 46 -174 0 -175
0 0 -525z"/>
</g>
</svg>
