<?xml version="1.0" standalone="no"?>
<!DOCTYPE svg PUBLIC "-//W3C//DTD SVG 20010904//EN"
 "http://www.w3.org/TR/2001/REC-SVG-20010904/DTD/svg10.dtd">
<svg version="1.0" xmlns="http://www.w3.org/2000/svg"
 width="260.000000pt" height="260.000000pt" viewBox="0 0 260.000000 260.000000"
 preserveAspectRatio="xMidYMid meet">
<metadata>
Created by potrace 1.11, written by Peter Selinger 2001-2013
</metadata>
<g transform="translate(0.000000,260.000000) scale(0.100000,-0.100000)"
fill="#000000" stroke="none">
<path d="M1080 1756 l0 -496 85 0 85 0 0 -50 0 -50 -47 0 c-40 0 -50 4 -74 33
l-28 32 -1 -32 c0 -18 -4 -33 -10 -33 -6 0 -10 -112 -10 -315 0 -308 0 -315
20 -315 18 0 20 -7 20 -55 l0 -55 140 0 140 0 0 120 c0 100 -2 120 -15 120
-13 0 -15 23 -15 145 l0 145 30 0 30 0 0 80 0 80 200 0 200 0 0 55 0 55 150 0
150 0 0 155 0 155 135 0 135 0 0 45 0 45 -49 0 -49 0 -21 70 c-12 39 -24 70
-27 70 -3 0 -3 -8 0 -17 2 -10 8 -42 11 -70 l7 -53 -69 0 -68 0 -2 113 c-3
245 -69 374 -228 449 -110 51 -172 59 -512 65 l-313 6 0 -497z m637 165 c42
-19 64 -49 77 -103 l6 -28 -120 0 -120 0 0 -150 c0 -93 -4 -150 -10 -150 -5 0
-10 -16 -10 -35 l0 -35 -55 0 -55 0 0 260 0 260 123 0 c98 0 130 -4 164 -19z
m80 -310 c-3 -32 -11 -72 -19 -87 -13 -28 -16 -29 -96 -32 l-82 -3 0 91 0 90
101 0 102 0 -6 -59z m333 -36 l0 -45 -75 0 -75 0 0 45 0 45 75 0 75 0 0 -45z"/>
<path d="M650 1715 l0 -525 -135 0 c-83 0 -135 -4 -135 -10 0 -6 52 -10 135
-10 83 0 135 4 135 10 0 6 25 10 56 10 73 0 70 -24 -4 -28 l-52 -3 0 -70 0
-69 -72 0 -73 -1 -53 58 -52 58 17 -42 c10 -24 47 -76 81 -118 62 -72 65 -75
108 -75 l44 0 0 -80 0 -80 -155 0 -155 0 0 65 0 65 -170 0 -170 0 0 -25 c0
-23 3 -25 50 -25 38 0 50 -4 50 -15 0 -11 -12 -15 -50 -15 l-50 0 0 -105 0
-105 80 0 80 0 0 -55 0 -55 420 0 420 0 0 260 c0 253 -1 260 -20 260 -20 0
-20 7 -20 325 0 318 0 325 20 325 20 0 20 7 20 300 l0 300 -175 0 -175 0 0
-525z"/>
<path d="M2538 1402 c-6 -21 -10 -22 -142 -22 l-136 0 0 -155 0 -155 -150 0
-150 0 0 -55 0 -55 -200 0 -200 0 0 -80 0 -80 -30 0 -30 0 0 -122 c0 -106 3
-127 20 -153 l20 -30 0 93 0 92 30 0 30 0 0 80 0 80 206 0 205 0 -6 55 -7 55
151 0 151 0 0 155 0 155 140 0 140 0 0 43 c0 23 -9 60 -18 82 -17 36 -19 38
-24 17z"/>
<path d="M20 547 c0 -22 43 -93 98 -159 56 -69 68 -78 97 -78 28 0 41 -9 80
-55 l47 -55 77 0 c70 0 80 -3 101 -25 l23 -25 214 0 c117 0 213 3 213 6 0 3
-5 14 -10 25 -10 18 -6 19 100 19 l110 0 0 40 c0 26 4 40 13 39 6 0 36 -29 65
-65 l53 -64 135 0 134 0 0 125 c0 112 -11 175 -29 175 -4 0 -7 -39 -6 -87 l0
-88 -145 -3 -146 -3 -54 67 -55 66 -3 -41 -3 -41 -112 0 c-86 0 -108 -3 -99
-12 35 -35 17 -38 -213 -38 l-225 0 -22 25 c-19 23 -29 25 -98 25 l-76 0 -44
55 c-39 47 -50 54 -82 55 -24 0 -41 6 -50 18 -24 34 -88 106 -88 99z"/>
<path d="M360 430 c0 -6 80 -10 220 -10 140 0 220 4 220 10 0 6 -80 10 -220
10 -140 0 -220 -4 -220 -10z"/>
</g>
</svg>
